<svg width="21" height="18" viewBox="0 0 21 18" fill="none" xmlns="http://www.w3.org/2000/svg">
<path d="M16.4255 6.66211C13.6257 8.26781 14.1025 12.9548 17.1394 12.9548C18.4492 12.9548 19.5828 11.9701 20.0875 10.7113C21.2531 7.80396 18.8292 5.28303 16.4255 6.66211Z" fill="#FF7236"/>
<path d="M13.5497 7.2425C16.9089 7.2425 17.9147 1.53815 14.7233 0.600325C13.2692 0.173187 11.6158 1.19808 11.0848 3.07161C10.4889 5.17153 11.6612 7.2425 13.5497 7.2425Z" fill="#FF7236"/>
<path d="M12.6853 17.3963C12.2188 17.2674 11.3908 17.1843 10.5242 17.1723C9.60809 17.1589 8.64896 17.2245 8.02839 17.3963C6.35233 17.8633 4.07172 16.7336 4.57211 14.3875C5.03496 12.2187 6.69798 12.3422 7.09124 10.2868C7.48748 8.20944 9.02735 7.2069 10.5242 7.28527C11.9095 7.35799 13.2578 8.357 13.6252 10.2872C14.0162 12.3441 15.6757 12.2194 16.1379 14.3875C16.6401 16.7355 14.3547 17.859 12.6853 17.3963Z" fill="#FF7236"/>
<path d="M7.63718 7.24269C8.58737 7.24269 9.40342 6.69082 9.85688 5.84619C11.2049 3.33466 8.99093 -0.142223 6.46334 0.602387C3.26643 1.5428 4.2798 7.24269 7.63718 7.24269Z" fill="#FF7236"/>
<path d="M6.11888 11.0872C7.19749 8.44816 4.64082 5.22449 2.19906 6.2388C-0.74218 7.46044 0.555041 12.7294 3.78905 12.7294C4.82692 12.7294 5.7089 12.0905 6.11888 11.0872Z" fill="#FF7236"/>
<path d="M12.6854 17.3963C12.2188 17.2674 11.3909 17.1843 10.5242 17.1723V7.28526C11.9096 7.35798 13.2579 8.35699 13.6253 10.2872C14.0162 12.3441 15.6758 12.2194 16.138 14.3875C16.6402 16.7355 14.3548 17.859 12.6854 17.3963Z" fill="#FF7236"/>
</svg>
